<?xml version="1.0" encoding="utf-8"?>
<!-- Generator: Adobe Illustrator 19.0.0, SVG Export Plug-In . SVG Version: 6.00 Build 0)  -->
<svg version="1.1" id="Layer_1" xmlns="http://www.w3.org/2000/svg" xmlns:xlink="http://www.w3.org/1999/xlink" x="0px" y="0px"
	 viewBox="0 0 500 500" style="enable-background:new 0 0 500 500;" xml:space="preserve">
<style type="text/css">
	.st0{fill:#FF3366;}
	.st1{fill:#FFFFFF;}
</style>
<g id="XMLID_1_">
	<path id="XMLID_3_" class="st0" d="M178.8,188.8H78.6c-6.1,0-11.1,5-11.1,11.1v100.2c0,6.1,5,11.1,11.1,11.1h100.2
		c6.1,0,11.1-5,11.1-11.1V199.9C189.9,193.8,184.9,188.8,178.8,188.8z"/>
	<path id="XMLID_11_" class="st0" d="M239.3,283.8H251v-51.1h-11.7V283.8z M282.1,253.6c-6-1.9-11.5-3.5-11.5-7.2v-0.2
		c0-3,2.6-5.1,7.2-5.1c2.2,0,4.7,0.5,7.3,1.4l0,0c0,0,0,0,0.1,0c0.2,0.1,0.4,0.2,0.7,0.3c1.9,0.6,6.8,1.4,11.1-5.2
		c-5.4-3.6-12.4-5.8-18.8-5.8c-10.2,0-18.2,5.9-18.2,15.6v0.2c0,9.8,8.4,12.9,16,15c6,1.8,11.4,3.2,11.4,7.2v0.2
		c0,3.4-2.9,5.5-7.9,5.5c-3.3,0-7-0.9-10.7-2.6c-1.1-0.4-6.5-2.3-11.2,4.3c6.4,5,14.3,7.6,21.6,7.6c10.6,0,19-5.3,19-16.1v-0.2
		C298,259.3,289.6,255.9,282.1,253.6z M207.4,270.3l-13.7-37.6h-12.6l21,51.5h10.5l20.9-51.5h-12.3L207.4,270.3z M352.4,231.6
		c-15.7,0-27.3,12.1-27.3,26.8c0,14.6,11.5,26.5,27.1,26.5c15.8,0,27.4-12.1,27.4-26.7C379.6,243.5,368,231.6,352.4,231.6z
		 M352.4,274.8c-9.1,0-15.6-7.5-15.6-16.6c0-9,6-16.4,15.4-16.4c9.2,0,15.7,7.5,15.7,16.6C367.8,267.5,361.8,274.8,352.4,274.8z
		 M414.3,231.6c-7.9,0-12.7,4.2-16,9v-7.9h-11.7v51.1h11.7V255c0-7.9,4.7-12.7,11.5-12.7c7,0,10.9,4.5,10.9,12.5v29h11.7v-32.5
		C432.5,239.4,425.8,231.6,414.3,231.6z M305.7,283.8h11.7v-51.1h-11.7V283.8z"/>
	<path id="XMLID_12_" class="st1" d="M108.4,227.3c4.1,0,7.5-3.2,7.5-7.4c0-4.2-3.4-7.4-7.5-7.4c-4.1,0-7.5,3.2-7.5,7.4
		C100.9,224.1,104.3,227.3,108.4,227.3z"/>
	<path id="XMLID_13_" class="st1" d="M92.9,266.8c-0.4,1.9-0.7,3.9-0.7,5.5c0,6.5,3.5,10.8,11,10.8c6.2,0,11.2-3.7,14.8-9.6
		l-2.2,8.9h12.3l7-28.2c1.8-7.1,5.2-10.9,10.3-10.9c4.1,0,6.6,2.5,6.6,6.7c0,1.2-0.1,2.5-0.5,4l-3.6,13c-0.5,1.9-0.8,3.7-0.8,5.5
		c0,6.2,3.6,10.7,11.2,10.7c6.5,0,11.7-4.2,14.5-14.2l-4.8-1.9c-2.4,6.7-4.5,7.9-6.2,7.9c-1.6,0-2.5-1.1-2.5-3.3
		c0-1,0.2-2.1,0.5-3.4l3.5-12.6c0.9-3,1.2-5.6,1.2-8c0-9.5-5.7-14.4-12.6-14.4c-6.5,0-13.1,5.8-16.4,12l2.4-11.1h-18.8l-2.6,9.7h8.8
		l-5.4,21.7c-4.3,9.5-12.1,9.6-13,9.4c-1.6-0.4-2.6-1-2.6-3.1c0-1.2,0.2-2.9,0.8-5l8.2-32.7H92.5l-2.6,9.7h8.7L92.9,266.8z"/>
</g>
</svg>
